{
  "accessors": [
    {
      "bufferView": 2,
      "componentType": 5126,
      "count": 65532,
      "max": [
        8.2029790878295898,
        3.1112449169158936,
        6.2478880882263184
      ],
      "min": [
        -8.6011314392089844,
        -18.884464263916016,
        -1.2670129537582397
      ],
      "type": "VEC3"
    },
    {
      "bufferView": 2,
      "byteOffset": 786384,
      "componentType": 5126,
      "count": 65532,
      "max": [
        0.99999725818634033,
        0.99999237060546875,
        0.99997413158416748
      ],
      "min": [
        -0.9999847412109375,
        -0.99999862909317017,
        -0.99999624490737915
      ],
      "type": "VEC3"
    },
    {
      "bufferView": 3,
      "componentType": 5126,
      "count": 65532,
      "max": [
        0.99878668785095215,
        0.99988859891891479,
        0.99998235702514648,
        1
      ],
      "min": [
        -0.99996358156204224,
        -0.9999886155128479,
        -0.99999964237213135,
        -1
      ],
      "type": "VEC4"
    },
    {
      "bufferView": 1,
      "componentType": 5126,
      "count": 65532,
      "max": [
        0.99926799535751343,
        0.99839502573013306
      ],
      "min": [
        0.00073199998587369919,
        0.00074099999619647861
      ],
      "type": "VEC2"
    },
    {
      "bufferView": 0,
      "componentType": 5125,
      "count": 351036,
      "max": [
        65531
      ],
      "min": [
        0
      ],
      "type": "SCALAR"
    },
    {
      "bufferView": 2,
      "byteOffset": 1572768,
      "componentType": 5126,
      "count": 65532,
      "max": [
        7.8900179862976074,
        2.1232230663299561,
        4.176605224609375
      ],
      "min": [
        -8.5671672821044922,
        -19.0645751953125,
        -1.2243880033493042
      ],
      "type": "VEC3"
    },
    {
      "bufferView": 2,
      "byteOffset": 2359152,
      "componentType": 5126,
      "count": 65532,
      "max": [
        0.99999946355819702,
        0.99999350309371948,
        0.99997150897979736
      ],
      "min": [
        -0.9999963641166687,
        -0.99999946355819702,
        -0.99999576807022095
      ],
      "type": "VEC3"
    },
    {
      "bufferView": 3,
      "byteOffset": 1048512,
      "componentType": 5126,
      "count": 65532,
      "max": [
        0.99994391202926636,
        0.99994802474975586,
        0.99991601705551147,
        1
      ],
      "min": [
        -0.99999964237213135,
        -0.99994868040084839,
        -0.99980974197387695,
        -1
      ],
      "type": "VEC4"
    },
    {
      "bufferView": 1,
      "byteOffset": 524256,
      "componentType": 5126,
      "count": 65532,
      "max": [
        0.99926799535751343,
        0.99925899505615234
      ],
      "min": [
        0.00073199998587369919,
        0.00074099999619647861
      ],
      "type": "VEC2"
    },
    {
      "bufferView": 0,
      "byteOffset": 1404144,
      "componentType": 5125,
      "count": 343398,
      "max": [
        65531
      ],
      "min": [
        0
      ],
      "type": "SCALAR"
    },
    {
      "bufferView": 2,
      "byteOffset": 3145536,
      "componentType": 5126,
      "count": 65532,
      "max": [
        7.7018852233886719,
        2.85896897315979,
        4.2153820991516113
      ],
      "min": [
        -8.7811002731323242,
        -13.642431259155273,
        -1.4515290260314941
      ],
      "type": "VEC3"
    },
    {
      "bufferView": 2,
      "byteOffset": 3931920,
      "componentType": 5126,
      "count": 65532,
      "max": [
        0.99998724460601807,
        0.99989962577819824,
        0.99999898672103882
      ],
      "min": [
        -0.99999624490737915,
        -0.99999964237213135,
        -0.99998664855957031
      ],
      "type": "VEC3"
    },
    {
      "bufferView": 3,
      "byteOffset": 2097024,
      "componentType": 5126,
      "count": 65532,
      "max": [
        0.9913327693939209,
        0.9999995231628418,
        0.99898689985275269,
        1
      ],
      "min": [
        -0.99999934434890747,
        -0.99999135732650757,
        -0.99998903274536133,
        -1
      ],
      "type": "VEC4"
    },
    {
      "bufferView": 1,
      "byteOffset": 1048512,
      "componentType": 5126,
      "count": 65532,
      "max": [
        0.99926799535751343,
        0.99839502573013306
      ],
      "min": [
        0.00073199998587369919,
        0.00074099999619647861
      ],
      "type": "VEC2"
    },
    {
      "bufferView": 0,
      "byteOffset": 2777736,
      "componentType": 5125,
      "count": 351939,
      "max": [
        65531
      ],
      "min": [
        0
      ],
      "type": "SCALAR"
    },
    {
      "bufferView": 2,
      "byteOffset": 4718304,
      "componentType": 5126,
      "count": 65532,
      "max": [
        7.9171872138977051,
        -7.89410400390625,
        4.1952319145202637
      ],
      "min": [
        -8.5605745315551758,
        -19.075325012207031,
        -1.4520930051803589
      ],
      "type": "VEC3"
    },
    {
      "bufferView": 2,
      "byteOffset": 5504688,
      "componentType": 5126,
      "count": 65532,
      "max": [
        0.99999624490737915,
        0.99981474876403809,
        0.68558669090270996
      ],
      "min": [
        -0.99999397993087769,
        -0.99999964237213135,
        -0.99999988079071045
      ],
      "type": "VEC3"
    },
    {
      "bufferView": 3,
      "byteOffset": 3145536,
      "componentType": 5126,
      "count": 65532,
      "max": [
        0.99214267730712891,
        0.99990653991699219,
        0.99984210729598999,
        1
      ],
      "min": [
        -0.99997067451477051,
        -0.99999767541885376,
        -0.99975019693374634,
        -1
      ],
      "type": "VEC4"
    },
    {
      "bufferView": 1,
      "byteOffset": 1572768,
      "componentType": 5126,
      "count": 65532,
      "max": [
        0.99926799535751343,
        0.99925899505615234
      ],
      "min": [
        0.00073199998587369919,
        0.029757000505924225
      ],
      "type": "VEC2"
    },
    {
      "bufferView": 0,
      "byteOffset": 4185492,
      "componentType": 5125,
      "count": 357045,
      "max": [
        65531
      ],
      "min": [
        0
      ],
      "type": "SCALAR"
    },
    {
      "bufferView": 2,
      "byteOffset": 6291072,
      "componentType": 5126,
      "count": 65532,
      "max": [
        7.667335033416748,
        2.9861750602722168,
        4.2595229148864746
      ],
      "min": [
        -8.6846189498901367,
        -19.07295036315918,
        -1.3898940086364746
      ],
      "type": "VEC3"
    },
    {
      "bufferView": 2,
      "byteOffset": 7077456,
      "componentType": 5126,
      "count": 65532,
      "max": [
        0.99999934434890747,
        0.99766099452972412,
        0.99999421834945679
      ],
      "min": [
        -0.99999910593032837,
        -0.99999874830245972,
        -0.99999988079071045
      ],
      "type": "VEC3"
    },
    {
      "bufferView": 3,
      "byteOffset": 4194048,
      "componentType": 5126,
      "count": 65532,
      "max": [
        0.99228602647781372,
        0.99995541572570801,
        0.99994891881942749,
        1
      ],
      "min": [
        -0.99999392032623291,
        -0.999622642993927,
        -0.99996680021286011,
        -1
      ],
      "type": "VEC4"
    },
    {
      "bufferView": 1,
      "byteOffset": 2097024,
      "componentType": 5126,
      "count": 65532,
      "max": [
        0.99926799535751343,
        0.99777799844741821
      ],
      "min": [
        0.00073199998587369919,
        0.00074099999619647861
      ],
      "type": "VEC2"
    },
    {
      "bufferView": 0,
      "byteOffset": 5613672,
      "componentType": 5125,
      "count": 347946,
      "max": [
        65531
      ],
      "min": [
        0
      ],
      "type": "SCALAR"
    },
    {
      "bufferView": 2,
      "byteOffset": 7863840,
      "componentType": 5126,
      "count": 4216,
      "max": [
        6.7168898582458496,
        2.1854560375213623,
        4.1219382286071777
      ],
      "min": [
        2.2185978889465332,
        1.1699730157852173,
        -0.82640999555587769
      ],
      "type": "VEC3"
    },
    {
      "bufferView": 2,
      "byteOffset": 7914432,
      "componentType": 5126,
      "count": 4216,
      "max": [
        0.99978852272033691,
        0.74067896604537964,
        0.99352675676345825
      ],
      "min": [
        -0.96860045194625854,
        -0.99999713897705078,
        -0.99965798854827881
      ],
      "type": "VEC3"
    },
    {
      "bufferView": 3,
      "byteOffset": 5242560,
      "componentType": 5126,
      "count": 4216,
      "max": [
        0.92467194795608521,
        0.9839668869972229,
        0.59634256362915039,
        1
      ],
      "min": [
        -0.99773877859115601,
        -0.99975240230560303,
        -0.99995076656341553,
        -1
      ],
      "type": "VEC4"
    },
    {
      "bufferView": 1,
      "byteOffset": 2621280,
      "componentType": 5126,
      "count": 4216,
      "max": [
        0.37182599306106567,
        0.31633499264717102
      ],
      "min": [
        0.26208499073982239,
        0.20533399283885956
      ],
      "type": "VEC2"
    },
    {
      "bufferView": 0,
      "byteOffset": 7005456,
      "componentType": 5125,
      "count": 20979,
      "max": [
        4215
      ],
      "min": [
        0
      ],
      "type": "SCALAR"
    }
  ],
  "asset": {
    "extras": {
      "author": "Geoffrey Marchal (https://sketchfab.com/geoffreymarchal)",
      "license": "CC-BY-NC-4.0 (http://creativecommons.org/licenses/by-nc/4.0/)",
      "source": "https://sketchfab.com/models/92aef0bb6cf04850aed1b69cd2e6e4f4",
      "title": "Cabinet"
    },
    "generator": "Sketchfab-3.35.5",
    "version": "2.0"
  },
  "bufferViews": [
    {
      "buffer": 0,
      "byteLength": 7089372,
      "byteOffset": 0,
      "name": "floatBufferViews",
      "target": 34963
    },
    {
      "buffer": 0,
      "byteLength": 2655008,
      "byteOffset": 7089372,
      "byteStride": 8,
      "name": "floatBufferViews",
      "target": 34962
    },
    {
      "buffer": 0,
      "byteLength": 7965024,
      "byteOffset": 9744380,
      "byteStride": 12,
      "name": "floatBufferViews",
      "target": 34962
    },
    {
      "buffer": 0,
      "byteLength": 5310016,
      "byteOffset": 17709404,
      "byteStride": 16,
      "name": "floatBufferViews",
      "target": 34962
    }
  ],
  "buffers": [
    {
      "byteLength": 23019420,
      "uri": "scene.bin"
    }
  ],
  "images": [
    {
      "uri": "textures/Material_0_baseColor.jpeg"
    }
  ],
  "materials": [
    {
      "doubleSided": true,
      "name": "Material_0",
      "pbrMetallicRoughness": {
        "baseColorFactor": [
          1,
          1,
          1,
          1
        ],
        "baseColorTexture": {
          "index": 0,
          "texCoord": 0
        },
        "metallicFactor": 0,
        "roughnessFactor": 1
      }
    }
  ],
  "meshes": [
    {
      "primitives": [
        {
          "attributes": {
            "NORMAL": 1,
            "POSITION": 0,
            "TANGENT": 2,
            "TEXCOORD_0": 3
          },
          "indices": 4,
          "material": 0,
          "mode": 4
        }
      ]
    },
    {
      "primitives": [
        {
          "attributes": {
            "NORMAL": 6,
            "POSITION": 5,
            "TANGENT": 7,
            "TEXCOORD_0": 8
          },
          "indices": 9,
          "material": 0,
          "mode": 4
        }
      ]
    },
    {
      "primitives": [
        {
          "attributes": {
            "NORMAL": 11,
            "POSITION": 10,
            "TANGENT": 12,
            "TEXCOORD_0": 13
          },
          "indices": 14,
          "material": 0,
          "mode": 4
        }
      ]
    },
    {
      "primitives": [
        {
          "attributes": {
            "NORMAL": 16,
            "POSITION": 15,
            "TANGENT": 17,
            "TEXCOORD_0": 18
          },
          "indices": 19,
          "material": 0,
          "mode": 4
        }
      ]
    },
    {
      "primitives": [
        {
          "attributes": {
            "NORMAL": 21,
            "POSITION": 20,
            "TANGENT": 22,
            "TEXCOORD_0": 23
          },
          "indices": 24,
          "material": 0,
          "mode": 4
        }
      ]
    },
    {
      "primitives": [
        {
          "attributes": {
            "NORMAL": 26,
            "POSITION": 25,
            "TANGENT": 27,
            "TEXCOORD_0": 28
          },
          "indices": 29,
          "material": 0,
          "mode": 4
        }
      ]
    }
  ],
  "nodes": [
    {
      "children": [
        1
      ],
      "name": "RootNode (gltf orientation matrix)",
      "rotation": [
        -0.70710678118654746,
        -0,
        -0,
        0.70710678118654757
      ]
    },
    {
      "children": [
        2
      ],
      "matrix": [
        0.99987322092056274,
        0,
        0.015923634171485901,
        0,
        0.015923634171485901,
        0,
        -0.99987322092056274,
        0,
        0,
        1,
        0,
        0,
        0.12706604599952698,
        -10.379907608032227,
        -5.5785093307495117,
        1
      ],
      "name": "RootNode (model correction matrix)"
    },
    {
      "children": [
        3,
        4,
        5,
        6,
        7,
        8
      ],
      "name": "cabinet.obj.cleaner.materialmerger.gles"
    },
    {
      "mesh": 0,
      "name": ""
    },
    {
      "mesh": 1,
      "name": ""
    },
    {
      "mesh": 2,
      "name": ""
    },
    {
      "mesh": 3,
      "name": ""
    },
    {
      "mesh": 4,
      "name": ""
    },
    {
      "mesh": 5,
      "name": ""
    }
  ],
  "samplers": [
    {
      "magFilter": 9729,
      "minFilter": 9987,
      "wrapS": 10497,
      "wrapT": 10497
    }
  ],
  "scene": 0,
  "scenes": [
    {
      "name": "OSG_Scene",
      "nodes": [
        0
      ]
    }
  ],
  "textures": [
    {
      "sampler": 0,
      "source": 0
    }
  ]
}

