# MagicaVoxel @ Ephtracy

# group
o 

# material
mtllib store 2.mtl
usemtl palette

# normals
vn -1 0 0
vn 1 0 0
vn 0 0 1
vn 0 0 -1
vn 0 -1 0
vn 0 1 0

# texcoords
vt 0.115234 0.5
vt 0.197266 0.5
vt 0.978516 0.5
vt 0.994141 0.5

# verts
v -6.3 0 6.3
v -6.3 0 6.1
v -6.3 0 3.4
v -6.3 1 6.1
v -6.3 1 3.4
v -6.3 7 6.3
v -6.3 7 6.2
v -6.3 7 6.1
v -6.3 7 5.3
v -6.3 7.7 6.2
v -6.3 7.7 6.1
v -6.3 8 6.3
v -6.3 8 5.3
v -2.8 1 6.3
v -2.8 1 6.1
v -2.8 4.9 6.3
v -2.8 4.9 6.2
v -2.8 5.1 6.3
v -2.8 5.1 6.2
v -2.8 6.8 6.3
v -2.8 6.8 6.1
v -2.8 7 6.3
v -2.8 7 6.2
v -2.8 7 6.1
v -2.8 7.7 6.2
v -2.8 7.7 6.1
v -2.8 7.8 6.3
v -2.8 7.8 6.1
v -2.7 7 6.1
v -2.7 7 5.3
v -2.7 7.7 6.1
v -2.7 8 6.1
v -2.7 8 5.3
v -1.9 1 6.3
v -1.9 1 6.2
v -1.9 4.9 6.3
v -1.9 4.9 6.2
v -1.9 5.1 6.3
v -1.9 5.1 6.2
v -1.9 6.8 6.3
v -1.9 6.8 6.2
v 1.5 0 6.3
v 1.5 0 6.1
v 1.5 0 5.3
v 1.5 0.2 6.3
v 1.5 0.2 6.1
v 1.5 0.8 6.3
v 1.5 0.8 6.1
v 1.5 1 6.3
v 1.5 1 6.1
v 1.5 1 5.3
v 1.7 1 6.3
v 1.7 1 6.2
v 1.7 4.9 6.3
v 1.7 4.9 6.2
v 1.7 5.1 6.3
v 1.7 5.1 6.2
v 1.7 6.8 6.3
v 1.7 6.8 6.2
v 1.7 7 6.3
v 1.7 7 6.2
v 1.7 7 6.1
v 1.7 7 5.3
v 1.7 7.7 6.2
v 1.7 7.7 6.1
v 1.7 7.8 6.3
v 1.7 7.8 6.1
v 1.7 8 6.1
v 1.7 8 5.3
v 2.6 1 6.3
v 2.6 1 6.1
v 2.6 4.9 6.3
v 2.6 4.9 6.2
v 2.6 5.1 6.3
v 2.6 5.1 6.2
v 2.6 6.8 6.3
v 2.6 6.8 6.1
v 3.1 0 5.3
v 3.1 0 4.3
v 3.1 1 5.3
v 3.1 1 4.3
v 4.3 0 4.3
v 4.3 0 3.4
v 4.3 1 4.3
v 4.3 1 3.4
v 5.4 7 6.3
v 5.4 7 6.2
v 5.4 7 6.1
v 5.4 7 5.3
v 5.4 7.7 6.2
v 5.4 7.7 6.1
v 5.4 7.8 6.3
v 5.4 7.8 6.1
v 5.4 8 6.1
v 5.4 8 5.3
v 6.1 1 6.3
v 6.1 1 6.1
v 6.1 4.9 6.3
v 6.1 4.9 6.2
v 6.1 5.1 6.3
v 6.1 5.1 6.2
v 6.1 6.8 6.3
v 6.1 6.8 6.1
v -6.1 1 6.3
v -6.1 1 6.1
v -6.1 4.9 6.3
v -6.1 4.9 6.2
v -6.1 5.1 6.3
v -6.1 5.1 6.2
v -6.1 6.8 6.3
v -6.1 6.8 6.1
v -5.4 7 6.3
v -5.4 7 6.2
v -5.4 7 6.1
v -5.4 7 5.3
v -5.4 7.7 6.2
v -5.4 7.7 6.1
v -5.4 7.8 6.3
v -5.4 7.8 6.1
v -5.4 8 6.1
v -5.4 8 5.3
v -4.3 0 4.3
v -4.3 0 3.4
v -4.3 1 4.3
v -4.3 1 3.4
v -3.1 0 5.3
v -3.1 0 4.3
v -3.1 1 5.3
v -3.1 1 4.3
v -2.6 1 6.3
v -2.6 1 6.1
v -2.6 4.9 6.3
v -2.6 4.9 6.2
v -2.6 5.1 6.3
v -2.6 5.1 6.2
v -2.6 6.8 6.3
v -2.6 6.8 6.1
v -1.7 1 6.3
v -1.7 1 6.2
v -1.7 4.9 6.3
v -1.7 4.9 6.2
v -1.7 5.1 6.3
v -1.7 5.1 6.2
v -1.7 6.8 6.3
v -1.7 6.8 6.2
v -1.7 7 6.3
v -1.7 7 6.2
v -1.7 7 6.1
v -1.7 7 5.3
v -1.7 7.7 6.2
v -1.7 7.7 6.1
v -1.7 7.8 6.3
v -1.7 7.8 6.1
v -1.7 8 6.1
v -1.7 8 5.3
v -1.5 0 6.3
v -1.5 0 6.1
v -1.5 0 5.3
v -1.5 0.2 6.3
v -1.5 0.2 6.1
v -1.5 0.8 6.3
v -1.5 0.8 6.1
v -1.5 1 6.3
v -1.5 1 6.1
v -1.5 1 5.3
v 1.9 1 6.3
v 1.9 1 6.2
v 1.9 4.9 6.3
v 1.9 4.9 6.2
v 1.9 5.1 6.3
v 1.9 5.1 6.2
v 1.9 6.8 6.3
v 1.9 6.8 6.2
v 2.7 7 6.1
v 2.7 7 5.3
v 2.7 7.7 6.1
v 2.7 8 6.1
v 2.7 8 5.3
v 2.8 1 6.3
v 2.8 1 6.1
v 2.8 4.9 6.3
v 2.8 4.9 6.2
v 2.8 5.1 6.3
v 2.8 5.1 6.2
v 2.8 6.8 6.3
v 2.8 6.8 6.1
v 2.8 7 6.3
v 2.8 7 6.2
v 2.8 7 6.1
v 2.8 7.7 6.2
v 2.8 7.7 6.1
v 2.8 7.8 6.3
v 2.8 7.8 6.1
v 6.3 0 6.3
v 6.3 0 6.1
v 6.3 0 3.4
v 6.3 1 6.1
v 6.3 1 3.4
v 6.3 7 6.3
v 6.3 7 6.2
v 6.3 7 6.1
v 6.3 7 5.3
v 6.3 7.7 6.2
v 6.3 7.7 6.1
v 6.3 8 6.3
v 6.3 8 5.3
v -6.3 0 6.3
v -6.3 7 6.3
v -6.3 8 6.3
v -6.1 0 6.3
v -6.1 0.2 6.3
v -6.1 0.8 6.3
v -6.1 1 6.3
v -6.1 4.9 6.3
v -6.1 5.1 6.3
v -6.1 6.8 6.3
v -6.1 7 6.3
v -5.4 7 6.3
v -5.4 7.8 6.3
v -2.8 0 6.3
v -2.8 0.2 6.3
v -2.8 0.8 6.3
v -2.8 1 6.3
v -2.8 4.9 6.3
v -2.8 5.1 6.3
v -2.8 6.8 6.3
v -2.8 7 6.3
v -2.8 7.8 6.3
v -2.6 0 6.3
v -2.6 0.2 6.3
v -2.6 0.8 6.3
v -2.6 1 6.3
v -2.6 4.9 6.3
v -2.6 5.1 6.3
v -2.6 6.8 6.3
v -2.6 7 6.3
v -1.9 0 6.3
v -1.9 0.2 6.3
v -1.9 0.8 6.3
v -1.9 1 6.3
v -1.9 4.9 6.3
v -1.9 5.1 6.3
v -1.9 6.8 6.3
v -1.9 7 6.3
v -1.7 0 6.3
v -1.7 0.2 6.3
v -1.7 0.8 6.3
v -1.7 1 6.3
v -1.7 4.9 6.3
v -1.7 5.1 6.3
v -1.7 6.8 6.3
v -1.7 7 6.3
v -1.7 7.8 6.3
v -1.5 0 6.3
v -1.5 0.2 6.3
v -1.5 0.8 6.3
v -1.5 1 6.3
v 1.5 0 6.3
v 1.5 0.2 6.3
v 1.5 0.8 6.3
v 1.5 1 6.3
v 1.7 0 6.3
v 1.7 0.2 6.3
v 1.7 0.8 6.3
v 1.7 1 6.3
v 1.7 4.9 6.3
v 1.7 5.1 6.3
v 1.7 6.8 6.3
v 1.7 7 6.3
v 1.7 7.8 6.3
v 1.9 0 6.3
v 1.9 0.2 6.3
v 1.9 0.8 6.3
v 1.9 1 6.3
v 1.9 4.9 6.3
v 1.9 5.1 6.3
v 1.9 6.8 6.3
v 1.9 7 6.3
v 2.6 0 6.3
v 2.6 0.2 6.3
v 2.6 0.8 6.3
v 2.6 1 6.3
v 2.6 4.9 6.3
v 2.6 5.1 6.3
v 2.6 6.8 6.3
v 2.6 7 6.3
v 2.8 0 6.3
v 2.8 0.2 6.3
v 2.8 0.8 6.3
v 2.8 1 6.3
v 2.8 4.9 6.3
v 2.8 5.1 6.3
v 2.8 6.8 6.3
v 2.8 7 6.3
v 2.8 7.8 6.3
v 5.4 7 6.3
v 5.4 7.8 6.3
v 6.1 0 6.3
v 6.1 0.2 6.3
v 6.1 0.8 6.3
v 6.1 1 6.3
v 6.1 4.9 6.3
v 6.1 5.1 6.3
v 6.1 6.8 6.3
v 6.1 7 6.3
v 6.3 0 6.3
v 6.3 7 6.3
v 6.3 8 6.3
v -6.1 4.9 6.2
v -6.1 5.1 6.2
v -2.8 4.9 6.2
v -2.8 5.1 6.2
v -2.6 4.9 6.2
v -2.6 5.1 6.2
v -1.9 1 6.2
v -1.9 4.9 6.2
v -1.9 5.1 6.2
v -1.9 6.8 6.2
v -1.7 1 6.2
v -1.7 4.9 6.2
v -1.7 5.1 6.2
v -1.7 6.8 6.2
v 1.7 1 6.2
v 1.7 4.9 6.2
v 1.7 5.1 6.2
v 1.7 6.8 6.2
v 1.9 1 6.2
v 1.9 4.9 6.2
v 1.9 5.1 6.2
v 1.9 6.8 6.2
v 2.6 4.9 6.2
v 2.6 5.1 6.2
v 2.8 4.9 6.2
v 2.8 5.1 6.2
v 6.1 4.9 6.2
v 6.1 5.1 6.2
v -6.3 1 6.1
v -6.3 7 6.1
v -6.1 1 6.1
v -6.1 6.8 6.1
v -6.1 7 6.1
v -5.4 7 6.1
v -5.4 7.8 6.1
v -5.4 8 6.1
v -2.8 1 6.1
v -2.8 6.8 6.1
v -2.8 7 6.1
v -2.8 7.7 6.1
v -2.8 7.8 6.1
v -2.7 7 6.1
v -2.7 7.7 6.1
v -2.7 8 6.1
v -2.6 1 6.1
v -2.6 6.8 6.1
v -2.6 7 6.1
v -1.9 6.8 6.1
v -1.9 7 6.1
v -1.7 6.8 6.1
v -1.7 7 6.1
v -1.7 7.8 6.1
v -1.7 8 6.1
v 1.7 6.8 6.1
v 1.7 7 6.1
v 1.7 7.8 6.1
v 1.7 8 6.1
v 1.9 6.8 6.1
v 1.9 7 6.1
v 2.6 1 6.1
v 2.6 6.8 6.1
v 2.6 7 6.1
v 2.7 7 6.1
v 2.7 7.7 6.1
v 2.7 8 6.1
v 2.8 1 6.1
v 2.8 6.8 6.1
v 2.8 7 6.1
v 2.8 7.7 6.1
v 2.8 7.8 6.1
v 5.4 7 6.1
v 5.4 7.8 6.1
v 5.4 8 6.1
v 6.1 1 6.1
v 6.1 6.8 6.1
v 6.1 7 6.1
v 6.3 1 6.1
v 6.3 7 6.1
v -6.3 7 5.3
v -6.3 8 5.3
v -5.4 7 5.3
v -5.4 8 5.3
v -3.1 0 5.3
v -3.1 1 5.3
v -2.7 7 5.3
v -2.7 8 5.3
v -1.7 7 5.3
v -1.7 8 5.3
v -1.5 0 5.3
v -1.5 1 5.3
v 1.5 0 5.3
v 1.5 1 5.3
v 1.7 7 5.3
v 1.7 8 5.3
v 2.7 7 5.3
v 2.7 8 5.3
v 3.1 0 5.3
v 3.1 1 5.3
v 5.4 7 5.3
v 5.4 8 5.3
v 6.3 7 5.3
v 6.3 8 5.3
v -4.3 0 4.3
v -4.3 1 4.3
v -3.1 0 4.3
v -3.1 1 4.3
v 3.1 0 4.3
v 3.1 1 4.3
v 4.3 0 4.3
v 4.3 1 4.3
v -6.3 0 3.4
v -6.3 1 3.4
v -4.3 0 3.4
v -4.3 1 3.4
v 4.3 0 3.4
v 4.3 1 3.4
v 6.3 0 3.4
v 6.3 1 3.4
v -6.3 0 6.3
v -6.1 0 6.3
v -2.8 0 6.3
v -2.6 0 6.3
v -1.9 0 6.3
v -1.7 0 6.3
v -1.5 0 6.3
v 1.5 0 6.3
v 1.7 0 6.3
v 1.9 0 6.3
v 2.6 0 6.3
v 2.8 0 6.3
v 6.1 0 6.3
v 6.3 0 6.3
v -6.3 0 6.1
v -6.1 0 6.1
v -2.8 0 6.1
v -2.6 0 6.1
v -1.9 0 6.1
v -1.7 0 6.1
v -1.5 0 6.1
v 1.5 0 6.1
v 1.7 0 6.1
v 1.9 0 6.1
v 2.6 0 6.1
v 2.8 0 6.1
v 6.1 0 6.1
v 6.3 0 6.1
v -3.1 0 5.3
v -1.5 0 5.3
v 1.5 0 5.3
v 3.1 0 5.3
v -4.3 0 4.3
v -3.1 0 4.3
v 3.1 0 4.3
v 4.3 0 4.3
v -6.3 0 3.4
v -4.3 0 3.4
v 4.3 0 3.4
v 6.3 0 3.4
v -6.1 4.9 6.3
v -2.8 4.9 6.3
v -2.6 4.9 6.3
v -1.9 4.9 6.3
v -1.7 4.9 6.3
v 1.7 4.9 6.3
v 1.9 4.9 6.3
v 2.6 4.9 6.3
v 2.8 4.9 6.3
v 6.1 4.9 6.3
v -6.1 4.9 6.2
v -2.8 4.9 6.2
v -2.6 4.9 6.2
v -1.9 4.9 6.2
v -1.7 4.9 6.2
v 1.7 4.9 6.2
v 1.9 4.9 6.2
v 2.6 4.9 6.2
v 2.8 4.9 6.2
v 6.1 4.9 6.2
v -6.1 6.8 6.3
v -2.8 6.8 6.3
v -2.6 6.8 6.3
v -1.9 6.8 6.3
v -1.7 6.8 6.3
v 1.7 6.8 6.3
v 1.9 6.8 6.3
v 2.6 6.8 6.3
v 2.8 6.8 6.3
v 6.1 6.8 6.3
v -1.9 6.8 6.2
v -1.7 6.8 6.2
v 1.7 6.8 6.2
v 1.9 6.8 6.2
v -6.1 6.8 6.1
v -2.8 6.8 6.1
v -2.6 6.8 6.1
v -1.9 6.8 6.1
v -1.7 6.8 6.1
v 1.7 6.8 6.1
v 1.9 6.8 6.1
v 2.6 6.8 6.1
v 2.8 6.8 6.1
v 6.1 6.8 6.1
v -6.3 7 6.1
v -6.1 7 6.1
v -5.4 7 6.1
v -2.7 7 6.1
v -2.6 7 6.1
v -1.9 7 6.1
v -1.7 7 6.1
v 1.7 7 6.1
v 1.9 7 6.1
v 2.6 7 6.1
v 2.7 7 6.1
v 5.4 7 6.1
v 6.1 7 6.1
v 6.3 7 6.1
v -6.3 7 5.3
v -5.4 7 5.3
v -2.7 7 5.3
v -1.7 7 5.3
v 1.7 7 5.3
v 2.7 7 5.3
v 5.4 7 5.3
v 6.3 7 5.3
v -5.4 7.8 6.3
v -2.8 7.8 6.3
v -1.7 7.8 6.3
v 1.7 7.8 6.3
v 2.8 7.8 6.3
v 5.4 7.8 6.3
v -5.4 7.8 6.1
v -2.8 7.8 6.1
v -1.7 7.8 6.1
v 1.7 7.8 6.1
v 2.8 7.8 6.1
v 5.4 7.8 6.1
v -6.1 1 6.3
v -2.8 1 6.3
v -2.6 1 6.3
v -1.9 1 6.3
v -1.7 1 6.3
v -1.5 1 6.3
v 1.5 1 6.3
v 1.7 1 6.3
v 1.9 1 6.3
v 2.6 1 6.3
v 2.8 1 6.3
v 6.1 1 6.3
v -1.9 1 6.2
v -1.7 1 6.2
v 1.7 1 6.2
v 1.9 1 6.2
v -6.3 1 6.1
v -6.1 1 6.1
v -2.8 1 6.1
v -2.6 1 6.1
v -1.9 1 6.1
v -1.7 1 6.1
v -1.5 1 6.1
v 1.5 1 6.1
v 1.7 1 6.1
v 1.9 1 6.1
v 2.6 1 6.1
v 2.8 1 6.1
v 6.1 1 6.1
v 6.3 1 6.1
v -3.1 1 5.3
v -1.5 1 5.3
v 1.5 1 5.3
v 3.1 1 5.3
v -4.3 1 4.3
v -3.1 1 4.3
v 3.1 1 4.3
v 4.3 1 4.3
v -6.3 1 3.4
v -4.3 1 3.4
v 4.3 1 3.4
v 6.3 1 3.4
v -6.1 5.1 6.3
v -2.8 5.1 6.3
v -2.6 5.1 6.3
v -1.9 5.1 6.3
v -1.7 5.1 6.3
v 1.7 5.1 6.3
v 1.9 5.1 6.3
v 2.6 5.1 6.3
v 2.8 5.1 6.3
v 6.1 5.1 6.3
v -6.1 5.1 6.2
v -2.8 5.1 6.2
v -2.6 5.1 6.2
v -1.9 5.1 6.2
v -1.7 5.1 6.2
v 1.7 5.1 6.2
v 1.9 5.1 6.2
v 2.6 5.1 6.2
v 2.8 5.1 6.2
v 6.1 5.1 6.2
v -5.4 7 6.3
v -2.8 7 6.3
v -1.7 7 6.3
v 1.7 7 6.3
v 2.8 7 6.3
v 5.4 7 6.3
v -5.4 7 6.2
v -2.8 7 6.2
v -1.7 7 6.2
v 1.7 7 6.2
v 2.8 7 6.2
v 5.4 7 6.2
v -5.4 7 6.1
v -2.8 7 6.1
v -1.7 7 6.1
v 1.7 7 6.1
v 2.8 7 6.1
v 5.4 7 6.1
v -6.3 8 6.3
v 6.3 8 6.3
v -5.4 8 6.1
v -2.7 8 6.1
v -1.7 8 6.1
v 1.7 8 6.1
v 2.7 8 6.1
v 5.4 8 6.1
v -6.3 8 5.3
v -5.4 8 5.3
v -2.7 8 5.3
v -1.7 8 5.3
v 1.7 8 5.3
v 2.7 8 5.3
v 5.4 8 5.3
v 6.3 8 5.3

# faces
f 4/2/1 2/2/1 1/2/1
f 4/3/1 3/3/1 2/3/1
f 5/3/1 3/3/1 4/3/1
f 6/2/1 4/2/1 1/2/1
f 7/2/1 4/2/1 6/2/1
f 8/2/1 4/2/1 7/2/1
f 10/4/1 7/4/1 6/4/1
f 10/2/1 8/2/1 7/2/1
f 11/4/1 9/4/1 8/4/1
f 11/2/1 8/2/1 10/2/1
f 12/4/1 10/4/1 6/4/1
f 12/4/1 11/4/1 10/4/1
f 13/4/1 9/4/1 11/4/1
f 13/4/1 11/4/1 12/4/1
f 16/2/1 15/2/1 14/2/1
f 17/2/1 15/2/1 16/2/1
f 19/2/1 15/2/1 17/2/1
f 20/2/1 19/2/1 18/2/1
f 21/2/1 15/2/1 19/2/1
f 21/2/1 19/2/1 20/2/1
f 25/4/1 23/4/1 22/4/1
f 25/2/1 24/2/1 23/2/1
f 26/2/1 24/2/1 25/2/1
f 27/4/1 25/4/1 22/4/1
f 27/4/1 26/4/1 25/4/1
f 28/4/1 26/4/1 27/4/1
f 31/4/1 30/4/1 29/4/1
f 32/4/1 30/4/1 31/4/1
f 33/4/1 30/4/1 32/4/1
f 36/2/1 35/2/1 34/2/1
f 37/2/1 35/2/1 36/2/1
f 40/2/1 39/2/1 38/2/1
f 41/2/1 39/2/1 40/2/1
f 45/4/1 43/4/1 42/4/1
f 46/3/1 44/3/1 43/3/1
f 46/4/1 43/4/1 45/4/1
f 47/1/1 46/1/1 45/1/1
f 48/3/1 44/3/1 46/3/1
f 48/1/1 46/1/1 47/1/1
f 49/4/1 48/4/1 47/4/1
f 50/3/1 44/3/1 48/3/1
f 50/4/1 48/4/1 49/4/1
f 51/3/1 44/3/1 50/3/1
f 54/2/1 53/2/1 52/2/1
f 55/2/1 53/2/1 54/2/1
f 58/2/1 57/2/1 56/2/1
f 59/2/1 57/2/1 58/2/1
f 64/4/1 61/4/1 60/4/1
f 64/2/1 62/2/1 61/2/1
f 65/4/1 63/4/1 62/4/1
f 65/2/1 62/2/1 64/2/1
f 66/4/1 64/4/1 60/4/1
f 66/4/1 65/4/1 64/4/1
f 67/4/1 63/4/1 65/4/1
f 67/4/1 65/4/1 66/4/1
f 68/4/1 63/4/1 67/4/1
f 69/4/1 63/4/1 68/4/1
f 72/2/1 71/2/1 70/2/1
f 73/2/1 71/2/1 72/2/1
f 75/2/1 71/2/1 73/2/1
f 76/2/1 75/2/1 74/2/1
f 77/2/1 71/2/1 75/2/1
f 77/2/1 75/2/1 76/2/1
f 80/3/1 79/3/1 78/3/1
f 81/3/1 79/3/1 80/3/1
f 84/3/1 83/3/1 82/3/1
f 85/3/1 83/3/1 84/3/1
f 90/4/1 87/4/1 86/4/1
f 90/3/1 88/3/1 87/3/1
f 91/4/1 89/4/1 88/4/1
f 91/3/1 88/3/1 90/3/1
f 92/4/1 90/4/1 86/4/1
f 92/4/1 91/4/1 90/4/1
f 93/4/1 89/4/1 91/4/1
f 93/4/1 91/4/1 92/4/1
f 94/4/1 89/4/1 93/4/1
f 95/4/1 89/4/1 94/4/1
f 98/2/1 97/2/1 96/2/1
f 99/2/1 97/2/1 98/2/1
f 101/2/1 97/2/1 99/2/1
f 102/2/1 101/2/1 100/2/1
f 103/2/1 97/2/1 101/2/1
f 103/2/1 101/2/1 102/2/1
f 104/2/2 105/2/2 106/2/2
f 106/2/2 105/2/2 107/2/2
f 107/2/2 105/2/2 109/2/2
f 108/2/2 109/2/2 110/2/2
f 109/2/2 105/2/2 111/2/2
f 110/2/2 109/2/2 111/2/2
f 112/4/2 113/4/2 116/4/2
f 113/3/2 114/3/2 116/3/2
f 114/4/2 115/4/2 117/4/2
f 116/3/2 114/3/2 117/3/2
f 112/4/2 116/4/2 118/4/2
f 116/4/2 117/4/2 118/4/2
f 117/4/2 115/4/2 119/4/2
f 118/4/2 117/4/2 119/4/2
f 119/4/2 115/4/2 120/4/2
f 120/4/2 115/4/2 121/4/2
f 122/3/2 123/3/2 124/3/2
f 124/3/2 123/3/2 125/3/2
f 126/3/2 127/3/2 128/3/2
f 128/3/2 127/3/2 129/3/2
f 130/2/2 131/2/2 132/2/2
f 132/2/2 131/2/2 133/2/2
f 133/2/2 131/2/2 135/2/2
f 134/2/2 135/2/2 136/2/2
f 135/2/2 131/2/2 137/2/2
f 136/2/2 135/2/2 137/2/2
f 138/2/2 139/2/2 140/2/2
f 140/2/2 139/2/2 141/2/2
f 142/2/2 143/2/2 144/2/2
f 144/2/2 143/2/2 145/2/2
f 146/4/2 147/4/2 150/4/2
f 147/2/2 148/2/2 150/2/2
f 148/4/2 149/4/2 151/4/2
f 150/2/2 148/2/2 151/2/2
f 146/4/2 150/4/2 152/4/2
f 150/4/2 151/4/2 152/4/2
f 151/4/2 149/4/2 153/4/2
f 152/4/2 151/4/2 153/4/2
f 153/4/2 149/4/2 154/4/2
f 154/4/2 149/4/2 155/4/2
f 156/4/2 157/4/2 159/4/2
f 157/3/2 158/3/2 160/3/2
f 159/4/2 157/4/2 160/4/2
f 159/1/2 160/1/2 161/1/2
f 160/3/2 158/3/2 162/3/2
f 161/1/2 160/1/2 162/1/2
f 161/4/2 162/4/2 163/4/2
f 162/3/2 158/3/2 164/3/2
f 163/4/2 162/4/2 164/4/2
f 164/3/2 158/3/2 165/3/2
f 166/2/2 167/2/2 168/2/2
f 168/2/2 167/2/2 169/2/2
f 170/2/2 171/2/2 172/2/2
f 172/2/2 171/2/2 173/2/2
f 174/4/2 175/4/2 176/4/2
f 176/4/2 175/4/2 177/4/2
f 177/4/2 175/4/2 178/4/2
f 179/2/2 180/2/2 181/2/2
f 181/2/2 180/2/2 182/2/2
f 182/2/2 180/2/2 184/2/2
f 183/2/2 184/2/2 185/2/2
f 184/2/2 180/2/2 186/2/2
f 185/2/2 184/2/2 186/2/2
f 187/4/2 188/4/2 190/4/2
f 188/2/2 189/2/2 190/2/2
f 190/2/2 189/2/2 191/2/2
f 187/4/2 190/4/2 192/4/2
f 190/4/2 191/4/2 192/4/2
f 192/4/2 191/4/2 193/4/2
f 194/2/2 195/2/2 197/2/2
f 195/3/2 196/3/2 197/3/2
f 197/3/2 196/3/2 198/3/2
f 194/2/2 197/2/2 199/2/2
f 199/2/2 197/2/2 200/2/2
f 200/2/2 197/2/2 201/2/2
f 199/4/2 200/4/2 203/4/2
f 200/2/2 201/2/2 203/2/2
f 201/4/2 202/4/2 204/4/2
f 203/2/2 201/2/2 204/2/2
f 199/4/2 203/4/2 205/4/2
f 203/4/2 204/4/2 205/4/2
f 204/4/2 202/4/2 206/4/2
f 205/4/2 204/4/2 206/4/2
f 210/2/3 208/2/3 207/2/3
f 211/2/3 208/2/3 210/2/3
f 212/2/3 208/2/3 211/2/3
f 213/2/3 208/2/3 212/2/3
f 214/2/3 208/2/3 213/2/3
f 215/2/3 208/2/3 214/2/3
f 216/2/3 208/2/3 215/2/3
f 217/4/3 209/4/3 208/4/3
f 217/2/3 208/2/3 216/2/3
f 218/4/3 209/4/3 217/4/3
f 218/4/3 217/4/3 216/4/3
f 219/4/3 209/4/3 218/4/3
f 220/4/3 211/4/3 210/4/3
f 221/1/3 212/1/3 211/1/3
f 221/4/3 211/4/3 220/4/3
f 222/4/3 213/4/3 212/4/3
f 222/1/3 212/1/3 221/1/3
f 223/4/3 213/4/3 222/4/3
f 224/4/3 215/4/3 214/4/3
f 225/4/3 215/4/3 224/4/3
f 226/4/3 218/4/3 216/4/3
f 227/4/3 218/4/3 226/4/3
f 228/4/3 209/4/3 219/4/3
f 229/2/3 223/2/3 222/2/3
f 229/2/3 227/2/3 226/2/3
f 229/2/3 221/2/3 220/2/3
f 229/2/3 225/2/3 224/2/3
f 229/2/3 226/2/3 225/2/3
f 229/2/3 222/2/3 221/2/3
f 229/2/3 224/2/3 223/2/3
f 230/2/3 227/2/3 229/2/3
f 231/2/3 227/2/3 230/2/3
f 232/2/3 227/2/3 231/2/3
f 233/2/3 227/2/3 232/2/3
f 234/2/3 227/2/3 233/2/3
f 235/2/3 227/2/3 234/2/3
f 236/4/3 228/4/3 227/4/3
f 236/2/3 227/2/3 235/2/3
f 237/4/3 230/4/3 229/4/3
f 238/1/3 231/1/3 230/1/3
f 238/4/3 230/4/3 237/4/3
f 239/4/3 232/4/3 231/4/3
f 239/1/3 231/1/3 238/1/3
f 240/4/3 232/4/3 239/4/3
f 241/4/3 234/4/3 233/4/3
f 242/4/3 234/4/3 241/4/3
f 243/4/3 236/4/3 235/4/3
f 244/4/3 228/4/3 236/4/3
f 244/4/3 236/4/3 243/4/3
f 245/2/3 243/2/3 242/2/3
f 245/2/3 242/2/3 241/2/3
f 245/2/3 244/2/3 243/2/3
f 245/2/3 238/2/3 237/2/3
f 245/2/3 241/2/3 240/2/3
f 245/2/3 240/2/3 239/2/3
f 245/2/3 239/2/3 238/2/3
f 246/2/3 244/2/3 245/2/3
f 247/2/3 244/2/3 246/2/3
f 248/2/3 244/2/3 247/2/3
f 249/2/3 244/2/3 248/2/3
f 250/2/3 244/2/3 249/2/3
f 251/2/3 244/2/3 250/2/3
f 252/4/3 228/4/3 244/4/3
f 252/2/3 244/2/3 251/2/3
f 253/4/3 209/4/3 228/4/3
f 253/4/3 228/4/3 252/4/3
f 254/4/3 246/4/3 245/4/3
f 255/1/3 247/1/3 246/1/3
f 255/4/3 246/4/3 254/4/3
f 256/4/3 248/4/3 247/4/3
f 256/1/3 247/1/3 255/1/3
f 257/4/3 248/4/3 256/4/3
f 262/4/3 259/4/3 258/4/3
f 263/1/3 260/1/3 259/1/3
f 263/4/3 259/4/3 262/4/3
f 264/4/3 261/4/3 260/4/3
f 264/1/3 260/1/3 263/1/3
f 265/4/3 261/4/3 264/4/3
f 266/4/3 250/4/3 249/4/3
f 267/4/3 250/4/3 266/4/3
f 268/4/3 252/4/3 251/4/3
f 269/4/3 252/4/3 268/4/3
f 270/4/3 209/4/3 253/4/3
f 271/2/3 269/2/3 268/2/3
f 271/2/3 267/2/3 266/2/3
f 271/2/3 265/2/3 264/2/3
f 271/2/3 264/2/3 263/2/3
f 271/2/3 268/2/3 267/2/3
f 271/2/3 263/2/3 262/2/3
f 271/2/3 266/2/3 265/2/3
f 272/2/3 269/2/3 271/2/3
f 273/2/3 269/2/3 272/2/3
f 274/2/3 269/2/3 273/2/3
f 275/2/3 269/2/3 274/2/3
f 276/2/3 269/2/3 275/2/3
f 277/2/3 269/2/3 276/2/3
f 278/4/3 270/4/3 269/4/3
f 278/2/3 269/2/3 277/2/3
f 279/4/3 272/4/3 271/4/3
f 280/1/3 273/1/3 272/1/3
f 280/4/3 272/4/3 279/4/3
f 281/4/3 274/4/3 273/4/3
f 281/1/3 273/1/3 280/1/3
f 282/4/3 274/4/3 281/4/3
f 283/4/3 276/4/3 275/4/3
f 284/4/3 276/4/3 283/4/3
f 285/4/3 278/4/3 277/4/3
f 286/4/3 270/4/3 278/4/3
f 286/4/3 278/4/3 285/4/3
f 287/2/3 285/2/3 284/2/3
f 287/2/3 284/2/3 283/2/3
f 287/2/3 286/2/3 285/2/3
f 287/2/3 280/2/3 279/2/3
f 287/2/3 283/2/3 282/2/3
f 287/2/3 282/2/3 281/2/3
f 287/2/3 281/2/3 280/2/3
f 288/2/3 286/2/3 287/2/3
f 289/2/3 286/2/3 288/2/3
f 290/2/3 286/2/3 289/2/3
f 291/2/3 286/2/3 290/2/3
f 292/2/3 286/2/3 291/2/3
f 293/2/3 286/2/3 292/2/3
f 294/4/3 270/4/3 286/4/3
f 294/2/3 286/2/3 293/2/3
f 295/4/3 209/4/3 270/4/3
f 295/4/3 270/4/3 294/4/3
f 296/4/3 294/4/3 293/4/3
f 297/4/3 209/4/3 295/4/3
f 298/4/3 288/4/3 287/4/3
f 299/1/3 289/1/3 288/1/3
f 299/4/3 288/4/3 298/4/3
f 300/4/3 290/4/3 289/4/3
f 300/1/3 289/1/3 299/1/3
f 301/4/3 290/4/3 300/4/3
f 302/4/3 292/4/3 291/4/3
f 303/4/3 292/4/3 302/4/3
f 304/4/3 296/4/3 293/4/3
f 304/4/3 297/4/3 296/4/3
f 305/4/3 297/4/3 304/4/3
f 306/2/3 303/2/3 302/2/3
f 306/2/3 301/2/3 300/2/3
f 306/2/3 305/2/3 304/2/3
f 306/2/3 304/2/3 303/2/3
f 306/2/3 302/2/3 301/2/3
f 306/2/3 299/2/3 298/2/3
f 306/2/3 300/2/3 299/2/3
f 307/4/3 297/4/3 305/4/3
f 307/2/3 305/2/3 306/2/3
f 308/4/3 209/4/3 297/4/3
f 308/4/3 297/4/3 307/4/3
f 309/4/4 310/4/4 311/4/4
f 311/4/4 310/4/4 312/4/4
f 313/4/4 314/4/4 316/4/4
f 316/4/4 314/4/4 317/4/4
f 316/2/4 317/2/4 319/2/4
f 317/2/4 318/2/4 319/2/4
f 315/2/4 316/2/4 319/2/4
f 319/2/4 318/2/4 320/2/4
f 320/2/4 318/2/4 321/2/4
f 321/2/4 318/2/4 322/2/4
f 320/4/4 321/4/4 324/4/4
f 324/4/4 321/4/4 325/4/4
f 323/2/4 324/2/4 327/2/4
f 325/2/4 326/2/4 327/2/4
f 324/2/4 325/2/4 327/2/4
f 327/2/4 326/2/4 328/2/4
f 328/2/4 326/2/4 329/2/4
f 329/2/4 326/2/4 330/2/4
f 328/4/4 329/4/4 331/4/4
f 331/4/4 329/4/4 332/4/4
f 333/4/4 334/4/4 335/4/4
f 335/4/4 334/4/4 336/4/4
f 337/2/4 338/2/4 339/2/4
f 339/2/4 338/2/4 340/2/4
f 340/2/4 338/2/4 341/2/4
f 340/4/4 341/4/4 342/4/4
f 340/4/4 342/4/4 346/4/4
f 346/4/4 342/4/4 347/4/4
f 343/4/4 344/4/4 349/4/4
f 347/2/4 348/2/4 350/2/4
f 345/2/4 346/2/4 350/2/4
f 346/2/4 347/2/4 350/2/4
f 348/4/4 349/4/4 351/4/4
f 350/2/4 348/2/4 351/2/4
f 349/4/4 344/4/4 352/4/4
f 351/4/4 349/4/4 352/4/4
f 345/2/4 350/2/4 353/2/4
f 353/2/4 350/2/4 354/2/4
f 354/2/4 350/2/4 355/2/4
f 354/4/4 355/4/4 356/4/4
f 356/4/4 355/4/4 357/4/4
f 356/2/4 357/2/4 358/2/4
f 358/2/4 357/2/4 359/2/4
f 358/4/4 359/4/4 362/4/4
f 362/4/4 359/4/4 363/4/4
f 360/4/4 361/4/4 364/4/4
f 364/4/4 361/4/4 365/4/4
f 362/2/4 363/2/4 366/2/4
f 366/2/4 363/2/4 367/2/4
f 366/4/4 367/4/4 369/4/4
f 369/4/4 367/4/4 370/4/4
f 368/2/4 369/2/4 371/2/4
f 369/2/4 370/2/4 371/2/4
f 368/2/4 371/2/4 374/2/4
f 371/2/4 372/2/4 374/2/4
f 374/2/4 372/2/4 375/2/4
f 375/2/4 372/2/4 376/2/4
f 372/4/4 373/4/4 377/4/4
f 376/2/4 372/2/4 377/2/4
f 377/4/4 373/4/4 378/4/4
f 375/4/4 376/4/4 379/4/4
f 378/4/4 373/4/4 380/4/4
f 380/4/4 373/4/4 381/4/4
f 375/4/4 379/4/4 383/4/4
f 383/4/4 379/4/4 384/4/4
f 382/2/4 383/2/4 385/2/4
f 383/2/4 384/2/4 385/2/4
f 385/2/4 384/2/4 386/2/4
f 387/4/4 388/4/4 389/4/4
f 389/4/4 388/4/4 390/4/4
f 393/4/4 394/4/4 395/4/4
f 395/4/4 394/4/4 396/4/4
f 391/3/4 392/3/4 397/3/4
f 397/3/4 392/3/4 398/3/4
f 401/4/4 402/4/4 403/4/4
f 403/4/4 402/4/4 404/4/4
f 399/3/4 400/3/4 405/3/4
f 405/3/4 400/3/4 406/3/4
f 407/4/4 408/4/4 409/4/4
f 409/4/4 408/4/4 410/4/4
f 411/3/4 412/3/4 413/3/4
f 413/3/4 412/3/4 414/3/4
f 415/3/4 416/3/4 417/3/4
f 417/3/4 416/3/4 418/3/4
f 419/3/4 420/3/4 421/3/4
f 421/3/4 420/3/4 422/3/4
f 423/3/4 424/3/4 425/3/4
f 425/3/4 424/3/4 426/3/4
f 441/2/5 428/2/5 427/2/5
f 442/4/5 429/4/5 428/4/5
f 442/2/5 428/2/5 441/2/5
f 443/2/5 430/2/5 429/2/5
f 443/4/5 429/4/5 442/4/5
f 444/4/5 431/4/5 430/4/5
f 444/2/5 430/2/5 443/2/5
f 445/2/5 432/2/5 431/2/5
f 445/4/5 431/4/5 444/4/5
f 446/4/5 433/4/5 432/4/5
f 446/2/5 432/2/5 445/2/5
f 447/4/5 433/4/5 446/4/5
f 448/4/5 435/4/5 434/4/5
f 449/2/5 436/2/5 435/2/5
f 449/4/5 435/4/5 448/4/5
f 450/4/5 437/4/5 436/4/5
f 450/2/5 436/2/5 449/2/5
f 451/2/5 438/2/5 437/2/5
f 451/4/5 437/4/5 450/4/5
f 452/4/5 439/4/5 438/4/5
f 452/2/5 438/2/5 451/2/5
f 453/2/5 440/2/5 439/2/5
f 453/4/5 439/4/5 452/4/5
f 454/2/5 440/2/5 453/2/5
f 455/3/5 442/3/5 441/3/5
f 455/3/5 443/3/5 442/3/5
f 455/3/5 444/3/5 443/3/5
f 455/3/5 445/3/5 444/3/5
f 455/3/5 446/3/5 445/3/5
f 455/3/5 447/3/5 446/3/5
f 456/3/5 447/3/5 455/3/5
f 457/3/5 452/3/5 451/3/5
f 457/3/5 454/3/5 453/3/5
f 457/3/5 453/3/5 452/3/5
f 457/3/5 449/3/5 448/3/5
f 457/3/5 451/3/5 450/3/5
f 457/3/5 450/3/5 449/3/5
f 458/3/5 454/3/5 457/3/5
f 459/3/5 455/3/5 441/3/5
f 460/3/5 455/3/5 459/3/5
f 461/3/5 454/3/5 458/3/5
f 462/3/5 454/3/5 461/3/5
f 463/3/5 459/3/5 441/3/5
f 464/3/5 459/3/5 463/3/5
f 465/3/5 454/3/5 462/3/5
f 466/3/5 454/3/5 465/3/5
f 477/4/5 468/4/5 467/4/5
f 478/4/5 468/4/5 477/4/5
f 479/4/5 470/4/5 469/4/5
f 480/4/5 470/4/5 479/4/5
f 481/4/5 472/4/5 471/4/5
f 482/4/5 472/4/5 481/4/5
f 483/4/5 474/4/5 473/4/5
f 484/4/5 474/4/5 483/4/5
f 485/4/5 476/4/5 475/4/5
f 486/4/5 476/4/5 485/4/5
f 497/4/5 490/4/5 489/4/5
f 498/4/5 492/4/5 491/4/5
f 499/4/5 492/4/5 498/4/5
f 500/4/5 494/4/5 493/4/5
f 501/4/5 488/4/5 487/4/5
f 502/4/5 488/4/5 501/4/5
f 503/4/5 497/4/5 489/4/5
f 504/2/5 498/2/5 497/2/5
f 504/4/5 497/4/5 503/4/5
f 505/4/5 499/4/5 498/4/5
f 505/2/5 498/2/5 504/2/5
f 506/2/5 500/2/5 499/2/5
f 506/4/5 499/4/5 505/4/5
f 507/4/5 494/4/5 500/4/5
f 507/2/5 500/2/5 506/2/5
f 508/4/5 494/4/5 507/4/5
f 509/4/5 496/4/5 495/4/5
f 510/4/5 496/4/5 509/4/5
f 525/4/5 512/4/5 511/4/5
f 525/4/5 513/4/5 512/4/5
f 526/4/5 513/4/5 525/4/5
f 527/4/5 515/4/5 514/4/5
f 527/4/5 516/4/5 515/4/5
f 527/4/5 517/4/5 516/4/5
f 528/4/5 517/4/5 527/4/5
f 529/4/5 521/4/5 520/4/5
f 529/4/5 519/4/5 518/4/5
f 529/4/5 520/4/5 519/4/5
f 530/4/5 521/4/5 529/4/5
f 531/4/5 524/4/5 523/4/5
f 531/4/5 523/4/5 522/4/5
f 532/4/5 524/4/5 531/4/5
f 539/4/5 534/4/5 533/4/5
f 540/4/5 534/4/5 539/4/5
f 541/4/5 536/4/5 535/4/5
f 542/4/5 536/4/5 541/4/5
f 543/4/5 538/4/5 537/4/5
f 544/4/5 538/4/5 543/4/5
f 547/4/6 548/4/6 557/4/6
f 549/4/6 550/4/6 558/4/6
f 551/4/6 552/4/6 559/4/6
f 553/4/6 554/4/6 560/4/6
f 545/4/6 546/4/6 562/4/6
f 562/4/6 546/4/6 563/4/6
f 547/4/6 557/4/6 564/4/6
f 557/2/6 558/2/6 565/2/6
f 564/4/6 557/4/6 565/4/6
f 558/4/6 550/4/6 566/4/6
f 565/2/6 558/2/6 566/2/6
f 566/4/6 550/4/6 567/4/6
f 551/4/6 559/4/6 568/4/6
f 559/2/6 560/2/6 569/2/6
f 568/4/6 559/4/6 569/4/6
f 560/4/6 554/4/6 570/4/6
f 569/2/6 560/2/6 570/2/6
f 570/4/6 554/4/6 571/4/6
f 555/4/6 556/4/6 572/4/6
f 572/4/6 556/4/6 573/4/6
f 562/3/6 563/3/6 575/3/6
f 563/3/6 564/3/6 575/3/6
f 566/3/6 567/3/6 575/3/6
f 564/3/6 565/3/6 575/3/6
f 561/3/6 562/3/6 575/3/6
f 565/3/6 566/3/6 575/3/6
f 575/3/6 567/3/6 576/3/6
f 570/3/6 571/3/6 577/3/6
f 573/3/6 574/3/6 577/3/6
f 572/3/6 573/3/6 577/3/6
f 571/3/6 572/3/6 577/3/6
f 569/3/6 570/3/6 577/3/6
f 568/3/6 569/3/6 577/3/6
f 577/3/6 574/3/6 578/3/6
f 561/3/6 575/3/6 579/3/6
f 579/3/6 575/3/6 580/3/6
f 578/3/6 574/3/6 581/3/6
f 581/3/6 574/3/6 582/3/6
f 561/3/6 579/3/6 583/3/6
f 583/3/6 579/3/6 584/3/6
f 582/3/6 574/3/6 585/3/6
f 585/3/6 574/3/6 586/3/6
f 587/4/6 588/4/6 597/4/6
f 597/4/6 588/4/6 598/4/6
f 589/4/6 590/4/6 599/4/6
f 599/4/6 590/4/6 600/4/6
f 591/4/6 592/4/6 601/4/6
f 601/4/6 592/4/6 602/4/6
f 593/4/6 594/4/6 603/4/6
f 603/4/6 594/4/6 604/4/6
f 595/4/6 596/4/6 605/4/6
f 605/4/6 596/4/6 606/4/6
f 607/4/6 608/4/6 613/4/6
f 613/4/6 608/4/6 614/4/6
f 609/4/6 610/4/6 615/4/6
f 615/4/6 610/4/6 616/4/6
f 611/4/6 612/4/6 617/4/6
f 617/4/6 612/4/6 618/4/6
f 613/4/6 614/4/6 619/4/6
f 619/4/6 614/4/6 620/4/6
f 615/4/6 616/4/6 621/4/6
f 621/4/6 616/4/6 622/4/6
f 617/4/6 618/4/6 623/4/6
f 623/4/6 618/4/6 624/4/6
f 625/4/6 626/4/6 627/4/6
f 627/4/6 626/4/6 628/4/6
f 628/4/6 626/4/6 629/4/6
f 629/4/6 626/4/6 630/4/6
f 630/4/6 626/4/6 631/4/6
f 631/4/6 626/4/6 632/4/6
f 625/4/6 627/4/6 633/4/6
f 633/4/6 627/4/6 634/4/6
f 628/4/6 629/4/6 635/4/6
f 635/4/6 629/4/6 636/4/6
f 630/4/6 631/4/6 637/4/6
f 637/4/6 631/4/6 638/4/6
f 632/4/6 626/4/6 639/4/6
f 639/4/6 626/4/6 640/4/6
