{
  "accessors": [
    {
      "bufferView": 2,
      "componentType": 5126,
      "count": 49658,
      "max": [
        47.224777221679688,
        0,
        49.381736755371094
      ],
      "min": [
        -47.224777221679688,
        -85.826019287109375,
        -40.468448638916016
      ],
      "type": "VEC3"
    },
    {
      "bufferView": 2,
      "byteOffset": 595896,
      "componentType": 5126,
      "count": 49658,
      "max": [
        1,
        1,
        1
      ],
      "min": [
        -1,
        -1,
        -1
      ],
      "type": "VEC3"
    },
    {
      "bufferView": 3,
      "componentType": 5126,
      "count": 49658,
      "max": [
        1,
        0.99994689226150513,
        1,
        1
      ],
      "min": [
        -1,
        -0.99982756376266479,
        -1,
        -1
      ],
      "type": "VEC4"
    },
    {
      "bufferView": 1,
      "componentType": 5126,
      "count": 49658,
      "max": [
        2,
        2
      ],
      "min": [
        0,
        0
      ],
      "type": "VEC2"
    },
    {
      "bufferView": 1,
      "byteOffset": 397264,
      "componentType": 5126,
      "count": 49658,
      "max": [
        5.5,
        1.0419559478759766
      ],
      "min": [
        -4.5000004768371582,
        0.001801617443561554
      ],
      "type": "VEC2"
    },
    {
      "bufferView": 1,
      "byteOffset": 794528,
      "componentType": 5126,
      "count": 49658,
      "max": [
        0.9951171875,
        0.96139854192733765
      ],
      "min": [
        0.0048828125,
        0.0048828125
      ],
      "type": "VEC2"
    },
    {
      "bufferView": 0,
      "componentType": 5125,
      "count": 237780,
      "max": [
        49657
      ],
      "min": [
        0
      ],
      "type": "SCALAR"
    },
    {
      "bufferView": 2,
      "byteOffset": 1191792,
      "componentType": 5126,
      "count": 405,
      "max": [
        43.145183563232422,
        -22.088640213012695,
        45.365528106689453
      ],
      "min": [
        -43.145183563232422,
        -27.439079284667969,
        -36.7205810546875
      ],
      "type": "VEC3"
    },
    {
      "bufferView": 2,
      "byteOffset": 1196652,
      "componentType": 5126,
      "count": 405,
      "max": [
        0.96928250789642334,
        0.97175806760787964,
        0.99998456239700317
      ],
      "min": [
        -0.97055459022521973,
        -0.074272014200687408,
        -0.99998408555984497
      ],
      "type": "VEC3"
    },
    {
      "bufferView": 3,
      "byteOffset": 794528,
      "componentType": 5126,
      "count": 405,
      "max": [
        0.9388805627822876,
        0.99987959861755371,
        0.98340564966201782,
        1
      ],
      "min": [
        -0.99975085258483887,
        -0.99869996309280396,
        -0.95591259002685547,
        1
      ],
      "type": "VEC4"
    },
    {
      "bufferView": 1,
      "byteOffset": 1191792,
      "componentType": 5126,
      "count": 405,
      "max": [
        0.6174699068069458,
        0.90003573894500732
      ],
      "min": [
        0.10131256282329559,
        0.11989618837833405
      ],
      "type": "VEC2"
    },
    {
      "bufferView": 1,
      "byteOffset": 1195032,
      "componentType": 5126,
      "count": 405,
      "max": [
        0.85450965166091919,
        0.037675019353628159
      ],
      "min": [
        0.011379659175872803,
        0.0048828125
      ],
      "type": "VEC2"
    },
    {
      "bufferView": 1,
      "byteOffset": 1198272,
      "componentType": 5126,
      "count": 405,
      "max": [
        1,
        0.87810665369033813
      ],
      "min": [
        0,
        5.5511151231257827e-17
      ],
      "type": "VEC2"
    },
    {
      "bufferView": 0,
      "byteOffset": 951120,
      "componentType": 5125,
      "count": 1050,
      "max": [
        404
      ],
      "min": [
        0
      ],
      "type": "SCALAR"
    },
    {
      "bufferView": 2,
      "byteOffset": 1201512,
      "componentType": 5126,
      "count": 2660,
      "max": [
        44.532546997070312,
        -22.457162857055664,
        46.748512268066406
      ],
      "min": [
        -44.532546997070312,
        -37.326381683349609,
        -38.1015625
      ],
      "type": "VEC3"
    },
    {
      "bufferView": 2,
      "byteOffset": 1233432,
      "componentType": 5126,
      "count": 2660,
      "max": [
        0.99882227182388306,
        0.99921303987503052,
        0.99882972240447998
      ],
      "min": [
        -0.99882102012634277,
        -0.055900268256664276,
        -0.9988216757774353
      ],
      "type": "VEC3"
    },
    {
      "bufferView": 3,
      "byteOffset": 801008,
      "componentType": 5126,
      "count": 2660,
      "max": [
        0.99991393089294434,
        0.95728319883346558,
        0.99914258718490601,
        1
      ],
      "min": [
        -0.99997889995574951,
        -0.95640712976455688,
        -0.99901729822158813,
        1
      ],
      "type": "VEC4"
    },
    {
      "bufferView": 1,
      "byteOffset": 1201512,
      "componentType": 5126,
      "count": 2660,
      "max": [
        0.89892244338989258,
        0.99892127513885498
      ],
      "min": [
        0.026857554912567139,
        0.018494397401809692
      ],
      "type": "VEC2"
    },
    {
      "bufferView": 1,
      "byteOffset": 1222792,
      "componentType": 5126,
      "count": 2660,
      "max": [
        0.99238681793212891,
        0.036877002567052841
      ],
      "min": [
        0.96036243438720703,
        0.015556830912828445
      ],
      "type": "VEC2"
    },
    {
      "bufferView": 1,
      "byteOffset": 1244072,
      "componentType": 5126,
      "count": 2660,
      "max": [
        0.93092530965805054,
        0.90882456302642822
      ],
      "min": [
        0.0048828125,
        0.0048828125
      ],
      "type": "VEC2"
    },
    {
      "bufferView": 0,
      "byteOffset": 955320,
      "componentType": 5125,
      "count": 11400,
      "max": [
        2659
      ],
      "min": [
        0
      ],
      "type": "SCALAR"
    }
  ],
  "asset": {
    "extras": {
      "author": "galexandre (https://sketchfab.com/galexandre)",
      "license": "CC-BY-4.0 (http://creativecommons.org/licenses/by/4.0/)",
      "source": "https://sketchfab.com/3d-models/victorian-chandelier-e146a6e97f6d454baecb776796530b6f",
      "title": "Victorian Chandelier"
    },
    "generator": "Sketchfab-8.55.0",
    "version": "2.0"
  },
  "bufferViews": [
    {
      "buffer": 0,
      "byteLength": 1000920,
      "byteOffset": 0,
      "name": "floatBufferViews",
      "target": 34963
    },
    {
      "buffer": 0,
      "byteLength": 1265352,
      "byteOffset": 1000920,
      "byteStride": 8,
      "name": "floatBufferViews",
      "target": 34962
    },
    {
      "buffer": 0,
      "byteLength": 1265352,
      "byteOffset": 2266272,
      "byteStride": 12,
      "name": "floatBufferViews",
      "target": 34962
    },
    {
      "buffer": 0,
      "byteLength": 843568,
      "byteOffset": 3531624,
      "byteStride": 16,
      "name": "floatBufferViews",
      "target": 34962
    }
  ],
  "buffers": [
    {
      "byteLength": 4375192,
      "uri": "scene.bin"
    }
  ],
  "images": [
    {
      "uri": "textures/gold_baseColor.png"
    },
    {
      "uri": "textures/gold_metallicRoughness.png"
    },
    {
      "uri": "textures/gold_normal.png"
    },
    {
      "uri": "textures/cire_baseColor.png"
    },
    {
      "uri": "textures/cire_metallicRoughness.png"
    },
    {
      "uri": "textures/cire_emissive.png"
    },
    {
      "uri": "textures/cire_normal.png"
    }
  ],
  "materials": [
    {
      "doubleSided": true,
      "emissiveFactor": [
        0,
        0,
        0
      ],
      "name": "gold",
      "normalTexture": {
        "index": 2,
        "scale": 1,
        "texCoord": 1
      },
      "pbrMetallicRoughness": {
        "baseColorFactor": [
          1,
          1,
          1,
          1
        ],
        "baseColorTexture": {
          "index": 0,
          "texCoord": 0
        },
        "metallicFactor": 1,
        "metallicRoughnessTexture": {
          "index": 1,
          "texCoord": 0
        },
        "roughnessFactor": 1
      }
    },
    {
      "doubleSided": true,
      "emissiveFactor": [
        0,
        0,
        0
      ],
      "name": "tissu",
      "normalTexture": {
        "index": 2,
        "scale": 1,
        "texCoord": 0
      },
      "pbrMetallicRoughness": {
        "baseColorFactor": [
          0.69125924338590228,
          0.54183484404539384,
          0.32912284230251959,
          1
        ],
        "metallicFactor": 0,
        "roughnessFactor": 0.96237740850859432
      }
    },
    {
      "doubleSided": true,
      "emissiveFactor": [
        1,
        1,
        1
      ],
      "emissiveTexture": {
        "index": 5,
        "texCoord": 0
      },
      "name": "cire",
      "normalTexture": {
        "index": 6,
        "scale": 1,
        "texCoord": 0
      },
      "pbrMetallicRoughness": {
        "baseColorFactor": [
          1,
          1,
          1,
          1
        ],
        "baseColorTexture": {
          "index": 3,
          "texCoord": 0
        },
        "metallicFactor": 0,
        "metallicRoughnessTexture": {
          "index": 4,
          "texCoord": 1
        },
        "roughnessFactor": 1
      }
    }
  ],
  "meshes": [
    {
      "name": "SM_Chandelier_GA_01_gold_0",
      "primitives": [
        {
          "attributes": {
            "NORMAL": 1,
            "POSITION": 0,
            "TANGENT": 2,
            "TEXCOORD_0": 3,
            "TEXCOORD_1": 4,
            "TEXCOORD_2": 5
          },
          "indices": 6,
          "material": 0,
          "mode": 4
        }
      ]
    },
    {
      "name": "SM_Chandelier_GA_01_tissu_0",
      "primitives": [
        {
          "attributes": {
            "NORMAL": 8,
            "POSITION": 7,
            "TANGENT": 9,
            "TEXCOORD_0": 10,
            "TEXCOORD_1": 11,
            "TEXCOORD_2": 12
          },
          "indices": 13,
          "material": 1,
          "mode": 4
        }
      ]
    },
    {
      "name": "SM_Chandelier_GA_01_cire_0",
      "primitives": [
        {
          "attributes": {
            "NORMAL": 15,
            "POSITION": 14,
            "TANGENT": 16,
            "TEXCOORD_0": 17,
            "TEXCOORD_1": 18,
            "TEXCOORD_2": 19
          },
          "indices": 20,
          "material": 2,
          "mode": 4
        }
      ]
    }
  ],
  "nodes": [
    {
      "children": [
        1
      ],
      "name": "RootNode (gltf orientation matrix)",
      "rotation": [
        -0.70710678118654746,
        -0,
        -0,
        0.70710678118654757
      ]
    },
    {
      "children": [
        2
      ],
      "name": "RootNode (model correction matrix)"
    },
    {
      "children": [
        3
      ],
      "matrix": [
        1,
        0,
        0,
        0,
        0,
        0,
        1,
        0,
        0,
        -1,
        0,
        0,
        0,
        0,
        0,
        1
      ],
      "name": "b1defb10053e454db614db0b1c995811.fbx"
    },
    {
      "children": [
        4
      ],
      "name": "RootNode"
    },
    {
      "children": [
        5,
        6,
        7
      ],
      "matrix": [
        1,
        0,
        0,
        0,
        0,
        1,
        0,
        0,
        0,
        0,
        1,
        0,
        -3.8317099892992701e-07,
        3.872457909892546e-13,
        1.8026779571300722e-06,
        1
      ],
      "name": "SM_Chandelier_GA_01"
    },
    {
      "mesh": 0,
      "name": "SM_Chandelier_GA_01_gold_0"
    },
    {
      "mesh": 1,
      "name": "SM_Chandelier_GA_01_tissu_0"
    },
    {
      "mesh": 2,
      "name": "SM_Chandelier_GA_01_cire_0"
    }
  ],
  "samplers": [
    {
      "magFilter": 9729,
      "minFilter": 9987,
      "wrapS": 10497,
      "wrapT": 10497
    }
  ],
  "scene": 0,
  "scenes": [
    {
      "name": "OSG_Scene",
      "nodes": [
        0
      ]
    }
  ],
  "textures": [
    {
      "sampler": 0,
      "source": 0
    },
    {
      "sampler": 0,
      "source": 1
    },
    {
      "sampler": 0,
      "source": 2
    },
    {
      "sampler": 0,
      "source": 3
    },
    {
      "sampler": 0,
      "source": 4
    },
    {
      "sampler": 0,
      "source": 5
    },
    {
      "sampler": 0,
      "source": 6
    }
  ]
}

