{
  "accessors": [
    {
      "bufferView": 2,
      "componentType": 5126,
      "count": 8353,
      "max": [
        250,
        805,
        250
      ],
      "min": [
        -250,
        0,
        -250
      ],
      "type": "VEC3"
    },
    {
      "bufferView": 2,
      "byteOffset": 100236,
      "componentType": 5126,
      "count": 8353,
      "max": [
        1,
        1,
        1
      ],
      "min": [
        -1,
        -1,
        -1
      ],
      "type": "VEC3"
    },
    {
      "bufferView": 1,
      "componentType": 5126,
      "count": 8353,
      "max": [
        1.8967239856719971,
        1.0453253984451294
      ],
      "min": [
        1.4909299612045288,
        0
      ],
      "type": "VEC2"
    },
    {
      "bufferView": 1,
      "byteOffset": 66824,
      "componentType": 5126,
      "count": 8353,
      "max": [
        1.8967239856719971,
        1.0453253984451294
      ],
      "min": [
        1.4909299612045288,
        0
      ],
      "type": "VEC2"
    },
    {
      "bufferView": 1,
      "byteOffset": 133648,
      "componentType": 5126,
      "count": 8353,
      "max": [
        1.8967239856719971,
        1.0453253984451294
      ],
      "min": [
        1.4909299612045288,
        0
      ],
      "type": "VEC2"
    },
    {
      "bufferView": 1,
      "byteOffset": 200472,
      "componentType": 5126,
      "count": 8353,
      "max": [
        1.8967239856719971,
        1.0453253984451294
      ],
      "min": [
        1.4909299612045288,
        0
      ],
      "type": "VEC2"
    },
    {
      "bufferView": 1,
      "byteOffset": 267296,
      "componentType": 5126,
      "count": 8353,
      "max": [
        1.8967239856719971,
        1.0453253984451294
      ],
      "min": [
        1.4909299612045288,
        0
      ],
      "type": "VEC2"
    },
    {
      "bufferView": 1,
      "byteOffset": 334120,
      "componentType": 5126,
      "count": 8353,
      "max": [
        1.8967239856719971,
        1.0453253984451294
      ],
      "min": [
        1.4909299612045288,
        0
      ],
      "type": "VEC2"
    },
    {
      "bufferView": 1,
      "byteOffset": 400944,
      "componentType": 5126,
      "count": 8353,
      "max": [
        1.8967239856719971,
        1.0453253984451294
      ],
      "min": [
        1.4909299612045288,
        0
      ],
      "type": "VEC2"
    },
    {
      "bufferView": 1,
      "byteOffset": 467768,
      "componentType": 5126,
      "count": 8353,
      "max": [
        1.8967239856719971,
        1.0453253984451294
      ],
      "min": [
        1.4909299612045288,
        0
      ],
      "type": "VEC2"
    },
    {
      "bufferView": 1,
      "byteOffset": 534592,
      "componentType": 5126,
      "count": 8353,
      "max": [
        1.8967239856719971,
        1.0453253984451294
      ],
      "min": [
        1.4909299612045288,
        0
      ],
      "type": "VEC2"
    },
    {
      "bufferView": 1,
      "byteOffset": 601416,
      "componentType": 5126,
      "count": 8353,
      "max": [
        1.8967239856719971,
        1.0453253984451294
      ],
      "min": [
        1.4909299612045288,
        0
      ],
      "type": "VEC2"
    },
    {
      "bufferView": 0,
      "componentType": 5125,
      "count": 35862,
      "max": [
        8352
      ],
      "min": [
        0
      ],
      "type": "SCALAR"
    }
  ],
  "asset": {
    "extras": {
      "author": "György Pejović (https://sketchfab.com/truetrue065)",
      "license": "CC-BY-4.0 (http://creativecommons.org/licenses/by/4.0/)",
      "source": "https://sketchfab.com/3d-models/bird-cage-c13df811c8334f158d486ff15d1d23db",
      "title": "Bird Cage"
    },
    "generator": "Sketchfab-8.25.0",
    "version": "2.0"
  },
  "bufferViews": [
    {
      "buffer": 0,
      "byteLength": 143448,
      "byteOffset": 0,
      "name": "floatBufferViews",
      "target": 34963
    },
    {
      "buffer": 0,
      "byteLength": 668240,
      "byteOffset": 143448,
      "byteStride": 8,
      "name": "floatBufferViews",
      "target": 34962
    },
    {
      "buffer": 0,
      "byteLength": 200472,
      "byteOffset": 811688,
      "byteStride": 12,
      "name": "floatBufferViews",
      "target": 34962
    }
  ],
  "buffers": [
    {
      "byteLength": 1012160,
      "uri": "scene.bin"
    }
  ],
  "images": [
    {
      "uri": "textures/BlackMetal_baseColor.jpeg"
    }
  ],
  "materials": [
    {
      "doubleSided": true,
      "emissiveFactor": [
        0,
        0,
        0
      ],
      "name": "BlackMetal",
      "pbrMetallicRoughness": {
        "baseColorFactor": [
          1,
          1,
          1,
          1
        ],
        "baseColorTexture": {
          "index": 0,
          "texCoord": 0
        },
        "metallicFactor": 0,
        "roughnessFactor": 0.59999999999999998
      }
    }
  ],
  "meshes": [
    {
      "name": "Mesh1_BlackMetal_0",
      "primitives": [
        {
          "attributes": {
            "NORMAL": 1,
            "POSITION": 0,
            "TEXCOORD_0": 2,
            "TEXCOORD_1": 3,
            "TEXCOORD_2": 4,
            "TEXCOORD_3": 5,
            "TEXCOORD_4": 6,
            "TEXCOORD_5": 7,
            "TEXCOORD_6": 8,
            "TEXCOORD_7": 9,
            "TEXCOORD_8": 10,
            "TEXCOORD_9": 11
          },
          "indices": 12,
          "material": 0,
          "mode": 4
        }
      ]
    }
  ],
  "nodes": [
    {
      "children": [
        1
      ],
      "name": "RootNode (gltf orientation matrix)",
      "rotation": [
        -0.70710678118654746,
        -0,
        -0,
        0.70710678118654757
      ]
    },
    {
      "children": [
        2
      ],
      "name": "RootNode (model correction matrix)"
    },
    {
      "children": [
        3
      ],
      "matrix": [
        1,
        0,
        0,
        0,
        0,
        0,
        1,
        0,
        0,
        -1,
        0,
        0,
        0,
        0,
        0,
        1
      ],
      "name": "BirdCage.fbx"
    },
    {
      "children": [
        4
      ],
      "name": "RootNode"
    },
    {
      "children": [
        5
      ],
      "name": "Model"
    },
    {
      "children": [
        6
      ],
      "name": "BirdCage1"
    },
    {
      "children": [
        7
      ],
      "name": "Mesh1"
    },
    {
      "mesh": 0,
      "name": "Mesh1_BlackMetal_0"
    }
  ],
  "samplers": [
    {
      "magFilter": 9729,
      "minFilter": 9987,
      "wrapS": 10497,
      "wrapT": 10497
    }
  ],
  "scene": 0,
  "scenes": [
    {
      "name": "OSG_Scene",
      "nodes": [
        0
      ]
    }
  ],
  "textures": [
    {
      "sampler": 0,
      "source": 0
    }
  ]
}

