{
  "accessors": [
    {
      "bufferView": 2,
      "componentType": 5126,
      "count": 11358,
      "max": [
        0.31749251484870911,
        1.306581974029541,
        0.22323897480964661
      ],
      "min": [
        -0.31860074400901794,
        -0.00016192122711800039,
        -0.2213323563337326
      ],
      "type": "VEC3"
    },
    {
      "bufferView": 2,
      "byteOffset": 136296,
      "componentType": 5126,
      "count": 11358,
      "max": [
        0.99995273351669312,
        0.99932819604873657,
        0.9999811053276062
      ],
      "min": [
        -0.99995088577270508,
        -0.99833011627197266,
        -0.99980783462524414
      ],
      "type": "VEC3"
    },
    {
      "bufferView": 3,
      "componentType": 5126,
      "count": 11358,
      "max": [
        0.99975264072418213,
        0.99997961521148682,
        0.99986416101455688,
        1
      ],
      "min": [
        -0.9989088773727417,
        -0.99998968839645386,
        -0.99952244758605957,
        -1
      ],
      "type": "VEC4"
    },
    {
      "bufferView": 3,
      "byteOffset": 181728,
      "componentType": 5126,
      "count": 11358,
      "max": [
        1,
        1,
        1,
        1
      ],
      "min": [
        1,
        1,
        1,
        1
      ],
      "type": "VEC4"
    },
    {
      "bufferView": 1,
      "componentType": 5126,
      "count": 11358,
      "max": [
        0.99830234050750732,
        0.7547992467880249
      ],
      "min": [
        0.00097462331177666783,
        0.00097465864382684231
      ],
      "type": "VEC2"
    },
    {
      "bufferView": 0,
      "componentType": 5125,
      "count": 45222,
      "max": [
        11357
      ],
      "min": [
        0
      ],
      "type": "SCALAR"
    }
  ],
  "asset": {
    "extras": {
      "author": "David Wigforss (https://sketchfab.com/dwigfor)",
      "license": "CC-BY-NC-4.0 (http://creativecommons.org/licenses/by-nc/4.0/)",
      "source": "https://sketchfab.com/3d-models/harry-potter-wizard-outfit-harry-potter-81ca3a8b52224db68cda1a14e46f1857",
      "title": "Harry Potter Wizard Outfit (Harry Potter)"
    },
    "generator": "Sketchfab-5.21.0",
    "version": "2.0"
  },
  "bufferViews": [
    {
      "buffer": 0,
      "byteLength": 180888,
      "byteOffset": 0,
      "name": "floatBufferViews",
      "target": 34963
    },
    {
      "buffer": 0,
      "byteLength": 90864,
      "byteOffset": 180888,
      "byteStride": 8,
      "name": "floatBufferViews",
      "target": 34962
    },
    {
      "buffer": 0,
      "byteLength": 272592,
      "byteOffset": 271752,
      "byteStride": 12,
      "name": "floatBufferViews",
      "target": 34962
    },
    {
      "buffer": 0,
      "byteLength": 363456,
      "byteOffset": 544344,
      "byteStride": 16,
      "name": "floatBufferViews",
      "target": 34962
    }
  ],
  "buffers": [
    {
      "byteLength": 907800,
      "uri": "scene.bin"
    }
  ],
  "images": [
    {
      "uri": "textures/MAT_HarryPotter_WizardOutfit1_baseColor.jpeg"
    },
    {
      "uri": "textures/MAT_HarryPotter_WizardOutfit1_normal.png"
    }
  ],
  "materials": [
    {
      "doubleSided": true,
      "emissiveFactor": [
        0,
        0,
        0
      ],
      "name": "MAT_HarryPotter_WizardOutfit1",
      "normalTexture": {
        "index": 1,
        "scale": 1,
        "texCoord": 0
      },
      "pbrMetallicRoughness": {
        "baseColorFactor": [
          1,
          1,
          1,
          1
        ],
        "baseColorTexture": {
          "index": 0,
          "texCoord": 0
        },
        "metallicFactor": 0,
        "roughnessFactor": 0.59999999999999998
      }
    }
  ],
  "meshes": [
    {
      "name": "geo1_MAT_HarryPotter_WizardOutfit1_0",
      "primitives": [
        {
          "attributes": {
            "COLOR_0": 3,
            "NORMAL": 1,
            "POSITION": 0,
            "TANGENT": 2,
            "TEXCOORD_0": 4
          },
          "indices": 5,
          "material": 0,
          "mode": 4
        }
      ]
    }
  ],
  "nodes": [
    {
      "children": [
        1
      ],
      "name": "RootNode (gltf orientation matrix)",
      "rotation": [
        -0.70710678118654746,
        -0,
        -0,
        0.70710678118654757
      ]
    },
    {
      "children": [
        2
      ],
      "name": "RootNode (model correction matrix)"
    },
    {
      "children": [
        3
      ],
      "matrix": [
        1,
        0,
        0,
        0,
        0,
        0,
        1,
        0,
        0,
        -1,
        0,
        0,
        0,
        0,
        0,
        1
      ],
      "name": "mesh.fbx"
    },
    {
      "children": [
        4
      ],
      "name": "RootNode"
    },
    {
      "children": [
        5
      ],
      "name": "geo1"
    },
    {
      "mesh": 0,
      "name": "geo1_MAT_HarryPotter_WizardOutfit1_0"
    }
  ],
  "samplers": [
    {
      "magFilter": 9729,
      "minFilter": 9987,
      "wrapS": 10497,
      "wrapT": 10497
    }
  ],
  "scene": 0,
  "scenes": [
    {
      "name": "OSG_Scene",
      "nodes": [
        0
      ]
    }
  ],
  "textures": [
    {
      "sampler": 0,
      "source": 0
    },
    {
      "sampler": 0,
      "source": 1
    }
  ]
}

